
<global>
ampeg_release=0.25
</global>

<group>
group_label=Group

<region>
hikey=a#2
hivel=127
lokey=a2
loop_end=293588
loop_mode=loop_continuous
loop_start=79283
loop_xfade=56597
lovel=85
offset=5795
pitch_keycenter=a#2
sample=Tenor_nonvib_FF_A#2.opus
</region>

<region>
hikey=a#3
hivel=127
lokey=a3
loop_end=284426
loop_mode=loop_continuous
loop_start=76809
loop_xfade=54831
lovel=85
offset=1486
pitch_keycenter=a#3
sample=Tenor_nonvib_FF_A#3.opus
</region>

<region>
hikey=a#4
hivel=127
lokey=a4
loop_end=274990
loop_mode=loop_continuous
loop_start=74261
loop_xfade=53012
lovel=85
offset=1641
pitch_keycenter=a#4
sample=Tenor_nonvib_FF_A#4.opus
</region>

<region>
hikey=c3
hivel=127
lokey=b2
loop_end=286123
loop_mode=loop_continuous
loop_start=77268
loop_xfade=55158
lovel=85
offset=6553
pitch_keycenter=c3
sample=Tenor_nonvib_FF_C3.opus
</region>

<region>
hikey=c4
hivel=127
lokey=b3
loop_end=284403
loop_mode=loop_continuous
loop_start=76803
loop_xfade=54826
lovel=85
offset=6170
pitch_keycenter=c4
sample=Tenor_nonvib_FF_C4.opus
</region>

<region>
hikey=c5
hivel=127
lokey=b4
loop_end=284760
loop_mode=loop_continuous
loop_start=76899
loop_xfade=54895
lovel=85
offset=1830
pitch_keycenter=c5
sample=Tenor_nonvib_FF_C5.opus
</region>

<region>
hikey=d3
hivel=127
lokey=c#3
loop_end=263345
loop_mode=loop_continuous
loop_start=88157
loop_xfade=62931
lovel=85
offset=5037
pitch_keycenter=d3
sample=Tenor_nonvib_FF_D3.opus
</region>

<region>
hikey=d4
hivel=127
lokey=c#4
loop_end=285686
loop_mode=loop_continuous
loop_start=77150
loop_xfade=55073
lovel=85
offset=5003
pitch_keycenter=d4
sample=Tenor_nonvib_FF_D4.opus
</region>

<region>
hikey=d5
hivel=127
lokey=c#5
loop_end=298571
loop_mode=loop_continuous
loop_start=80629
loop_xfade=57558
lovel=85
offset=7062
pitch_keycenter=d5
sample=Tenor_nonvib_FF_D5.opus
</region>

<region>
hikey=e3
hivel=127
lokey=d#3
loop_end=264923
loop_mode=loop_continuous
loop_start=71542
loop_xfade=51071
lovel=85
offset=6220
pitch_keycenter=e3
sample=Tenor_nonvib_FF_E3.opus
</region>

<region>
hikey=e4
hivel=127
lokey=d#4
loop_end=280074
loop_mode=loop_continuous
loop_start=75634
loop_xfade=53992
lovel=85
offset=6842
pitch_keycenter=e4
sample=Tenor_nonvib_FF_E4.opus
</region>

<region>
hikey=F5
hivel=127
lokey=d#5
loop_end=287282
loop_mode=loop_continuous
loop_start=90208
loop_xfade=64396
lovel=85
offset=6756
pitch_keycenter=E5
sample=Tenor_nonvib_FF_E5.opus
</region>

<region>
hikey=f#3
hivel=127
lokey=f3
loop_end=292313
loop_mode=loop_continuous
loop_start=78939
loop_xfade=56351
lovel=85
offset=5532
pitch_keycenter=f#3
sample=Tenor_nonvib_FF_F#3.opus
</region>

<region>
hikey=f#4
hivel=127
lokey=f4
loop_end=280902
loop_mode=loop_continuous
loop_start=75858
loop_xfade=54151
lovel=85
offset=2654
pitch_keycenter=f#4
sample=Tenor_nonvib_FF_F#4.opus
</region>

<region>
hikey=g#3
hivel=127
lokey=g3
loop_end=279087
loop_mode=loop_continuous
loop_start=75367
loop_xfade=53802
lovel=85
offset=1868
pitch_keycenter=g#3
sample=Tenor_nonvib_FF_G#3.opus
</region>

<region>
hikey=g#4
hivel=127
lokey=g4
loop_end=283500
loop_mode=loop_continuous
loop_start=76559
loop_xfade=54652
lovel=85
offset=3948
pitch_keycenter=g#4
sample=Tenor_nonvib_FF_G#4.opus
</region>

<region>
hivel=127
key=g#2
loop_end=274680
loop_mode=loop_continuous
loop_start=78635
loop_xfade=56134
lovel=85
offset=5833
sample=Tenor_nonvib_FF_G#2.opus
</region>

<region>
hikey=a#2
hivel=84
lokey=a2
loop_end=279671
loop_mode=loop_continuous
loop_start=75525
loop_xfade=53914
lovel=43
offset=4569
pitch_keycenter=a#2
sample=Tenor_nonvib_MF_A#2.opus
</region>

<region>
hikey=a#3
hivel=84
lokey=a3
loop_end=279187
loop_mode=loop_continuous
loop_start=75394
loop_xfade=53821
lovel=43
offset=1512
pitch_keycenter=a#3
sample=Tenor_nonvib_MF_A#3.opus
</region>

<region>
hikey=a#4
hivel=84
lokey=a4
loop_end=319075
loop_mode=loop_continuous
loop_start=86166
loop_xfade=61510
lovel=43
offset=1496
pitch_keycenter=a#4
sample=Tenor_nonvib_MF_A#4.opus
</region>

<region>
hikey=c3
hivel=84
lokey=b2
loop_end=282292
loop_mode=loop_continuous
loop_start=76233
loop_xfade=54419
lovel=43
offset=7738
pitch_keycenter=c3
sample=Tenor_nonvib_MF_C3.opus
</region>

<region>
hikey=c4
hivel=84
lokey=b3
loop_end=279690
loop_mode=loop_continuous
loop_start=75530
loop_xfade=53918
lovel=43
offset=5976
pitch_keycenter=c4
sample=Tenor_nonvib_MF_C4.opus
</region>

<region>
hikey=c5
hivel=84
lokey=b4
loop_end=271988
loop_mode=loop_continuous
loop_start=73450
loop_xfade=52433
lovel=43
offset=1305
pitch_keycenter=c5
sample=Tenor_nonvib_MF_C5.opus
</region>

<region>
hikey=d3
hivel=84
lokey=c#3
loop_end=275668
loop_mode=loop_continuous
loop_start=74444
loop_xfade=53142
lovel=43
offset=5967
pitch_keycenter=d3
sample=Tenor_nonvib_MF_D3.opus
</region>

<region>
hikey=d4
hivel=84
lokey=c#4
loop_end=278792
loop_mode=loop_continuous
loop_start=75288
loop_xfade=53745
lovel=43
offset=5473
pitch_keycenter=d4
sample=Tenor_nonvib_MF_D4.opus
</region>

<region>
hikey=d5
hivel=84
lokey=c#5
loop_end=284245
loop_mode=loop_continuous
loop_start=76760
loop_xfade=54796
lovel=43
offset=6812
pitch_keycenter=d5
sample=Tenor_nonvib_MF_D5.opus
</region>

<region>
hikey=e3
hivel=84
lokey=d#3
loop_end=271899
loop_mode=loop_continuous
loop_start=73426
loop_xfade=52416
lovel=43
offset=7248
pitch_keycenter=e3
sample=Tenor_nonvib_MF_E3.opus
</region>

<region>
hikey=e4
hivel=84
lokey=d#4
loop_end=279104
loop_mode=loop_continuous
loop_start=75372
loop_xfade=53805
lovel=43
offset=8199
pitch_keycenter=e4
sample=Tenor_nonvib_MF_E4.opus
</region>

<region>
hikey=F5
hivel=84
lokey=d#5
loop_end=280858
loop_mode=loop_continuous
loop_start=85628
loop_xfade=61126
lovel=43
offset=953
pitch_keycenter=E5
sample=Tenor_nonvib_MF_E5.opus
</region>

<region>
hikey=f#3
hivel=84
lokey=f3
loop_end=274947
loop_mode=loop_continuous
loop_start=74249
loop_xfade=53003
lovel=43
offset=2813
pitch_keycenter=f#3
sample=Tenor_nonvib_MF_F#3.opus
</region>

<region>
hikey=f#4
hivel=84
lokey=f4
loop_end=275940
loop_mode=loop_continuous
loop_start=86705
loop_xfade=61895
lovel=43
offset=1906
pitch_keycenter=f#4
sample=Tenor_nonvib_MF_F#4.opus
</region>

<region>
hivel=84
key=g#2
loop_end=271728
loop_mode=loop_continuous
loop_start=73380
loop_xfade=52383
lovel=43
offset=6918
sample=Tenor_nonvib_MF_G#2.opus
</region>

<region>
hikey=g#3
hivel=84
lokey=g3
loop_end=275168
loop_mode=loop_continuous
loop_start=74309
loop_xfade=53046
lovel=43
offset=5229
pitch_keycenter=g#3
sample=Tenor_nonvib_MF_G#3.opus
</region>

<region>
hikey=g#4
hivel=84
lokey=g4
loop_end=277851
loop_mode=loop_continuous
loop_start=75034
loop_xfade=53563
lovel=43
offset=3997
pitch_keycenter=g#4
sample=Tenor_nonvib_MF_G#4.opus
</region>

<region>
hikey=a#2
hivel=42
lokey=a2
loop_end=283374
loop_mode=loop_continuous
loop_start=76525
loop_xfade=54628
lovel=0
offset=6908
pitch_keycenter=a#2
sample=Tenor_nonvib_PP_A#2.opus
</region>

<region>
hikey=a#3
hivel=42
lokey=a3
loop_end=281104
loop_mode=loop_continuous
loop_start=75912
loop_xfade=54190
lovel=0
offset=1711
pitch_keycenter=a#3
sample=Tenor_nonvib_PP_A#3.opus
</region>

<region>
hikey=a#4
hivel=42
lokey=a4
loop_end=274145
loop_mode=loop_continuous
loop_start=74033
loop_xfade=52849
lovel=0
offset=1811
pitch_keycenter=a#4
sample=Tenor_nonvib_PP_A#4.opus
</region>

<region>
hikey=c3
hivel=42
lokey=b2
loop_end=282964
loop_mode=loop_continuous
loop_start=87253
loop_xfade=62287
lovel=0
offset=4820
pitch_keycenter=c3
sample=Tenor_nonvib_PP_C3.opus
</region>

<region>
hikey=c4
hivel=42
lokey=b3
loop_end=273508
loop_mode=loop_continuous
loop_start=73861
loop_xfade=52726
lovel=0
offset=4599
pitch_keycenter=c4
sample=Tenor_nonvib_PP_C4.opus
</region>

<region>
hikey=c5
hivel=42
lokey=b4
loop_end=266180
loop_mode=loop_continuous
loop_start=71882
loop_xfade=51313
lovel=0
offset=1128
pitch_keycenter=c5
sample=Tenor_nonvib_PP_C5.opus
</region>

<region>
hikey=d3
hivel=42
lokey=c#3
loop_end=286982
loop_mode=loop_continuous
loop_start=77500
loop_xfade=55323
lovel=0
offset=3725
pitch_keycenter=d3
sample=Tenor_nonvib_PP_D3.opus
</region>

<region>
hikey=d4
hivel=42
lokey=c#4
loop_end=272535
loop_mode=loop_continuous
loop_start=86293
loop_xfade=61601
lovel=0
offset=3723
pitch_keycenter=d4
sample=Tenor_nonvib_PP_D4.opus
</region>

<region>
hikey=d5
hivel=42
lokey=c#5
loop_end=275173
loop_mode=loop_continuous
loop_start=74310
loop_xfade=53047
lovel=0
offset=977
pitch_keycenter=d5
sample=Tenor_nonvib_PP_D5.opus
</region>

<region>
hikey=e3
hivel=42
lokey=d#3
loop_end=281828
loop_mode=loop_continuous
loop_start=76108
loop_xfade=54330
lovel=0
offset=5736
pitch_keycenter=e3
sample=Tenor_nonvib_PP_E3.opus
</region>

<region>
hikey=e4
hivel=42
lokey=d#4
loop_end=286738
loop_mode=loop_continuous
loop_start=85548
loop_xfade=61069
lovel=0
offset=4962
pitch_keycenter=e4
sample=Tenor_nonvib_PP_E4.opus
</region>

<region>
hikey=F5
hivel=42
lokey=d#5
loop_end=256417
loop_mode=loop_continuous
loop_start=87237
loop_xfade=62275
lovel=0
offset=6450
pitch_keycenter=E5
sample=Tenor_nonvib_PP_E5.opus
</region>

<region>
hikey=f#3
hivel=42
lokey=f3
loop_end=285830
loop_mode=loop_continuous
loop_start=77188
loop_xfade=55101
lovel=0
offset=2052
pitch_keycenter=f#3
sample=Tenor_nonvib_PP_F#3.opus
</region>

<region>
hikey=f#4
hivel=42
lokey=f4
loop_end=274701
loop_mode=loop_continuous
loop_start=74183
loop_xfade=52956
lovel=0
offset=2670
pitch_keycenter=f#4
sample=Tenor_nonvib_PP_F#4.opus
</region>

<region>
hivel=42
key=g#2
loop_end=303913
loop_mode=loop_continuous
loop_start=82072
loop_xfade=58587
lovel=0
offset=9135
sample=Tenor_nonvib_PP_G#2.opus
</region>

<region>
hikey=g#3
hivel=42
lokey=g3
loop_end=304260
loop_mode=loop_continuous
loop_start=82165
loop_xfade=58654
lovel=0
offset=1388
pitch_keycenter=g#3
sample=Tenor_nonvib_PP_G#3.opus
</region>

<region>
hikey=g#4
hivel=42
lokey=g4
loop_end=281612
loop_mode=loop_continuous
loop_start=76049
loop_xfade=54288
lovel=0
offset=8558
pitch_keycenter=g#4
sample=Tenor_nonvib_PP_G#4.opus
</region>
</group>